:FULLY-SPECIFIED
:FORCE-ALL-JOINTS-BE-3DOF
:DEGREES
1631
root -14.8391 14.5691 19.3658 703.96 -70.9471 375.921
lfemur 9.7684 -11.3762 -12.1336
ltibia 31.8429 0 0
lfoot -21.8353 28.993 0
ltoes -43.4829 0 0
rfemur -52.3023 -14.6639 8.07546
rtibia 65.0968 0 0
rfoot -9.02144 10.4598 0
rtoes 2.51292 0 0
lowerback 12.9943 4.01466 -7.65121
upperback -0.517111 4.1012 -0.329563
thorax -8.39277 2.29303 3.1177
lowerneck 1.16146 -13.0734 -12.8319
upperneck 3.29813 -17.9533 10.5221
head 2.89372 -8.99542 4.44806
lclavicle 1.89549e-14 -7.34472e-15 0
lhumerus -72.0032 -16.8704 104.362
lradius 104.18 0 0
lwrist 54.5237 0 0
lhand -11.1539 49.3456 0
lfingers 7.12502 0 0
lthumb 14.8314 78.2999 0
rclavicle 1.89549e-14 -7.34472e-15 0
rhumerus 46.3876 -3.91484 -55.7639
rradius 19.1697 0 0
rwrist 21.3646 0 0
rhand -18.4301 -36.4359 0
rfingers 7.12502 0 0
rthumb 7.85515 -66.2663 0
1632
root -14.8621 14.5686 19.3706 703.979 -70.9742 375.989
lfemur 9.9277 -11.4172 -12.1777
ltibia 31.5742 0 0
lfoot -21.7833 29.0569 0
ltoes -43.4667 0 0
rfemur -52.3709 -14.6819 8.0784
rtibia 65.2137 0 0
rfoot -9.1797 10.4532 0
rtoes 2.51873 0 0
lowerback 12.9793 4.0113 -7.65217
upperback -0.531951 4.09859 -0.319977
thorax -8.40094 2.29287 3.12933
lowerneck 1.19324 -13.0778 -12.8331
upperneck 3.28424 -17.9622 10.5278
head 2.88613 -9.00071 4.45186
lclavicle 2.02947e-14 -6.96806e-15 0
lhumerus -72.0201 -16.9209 104.379
lradius 104.175 0 0
lwrist 54.5821 0 0
lhand -11.8777 49.1916 0
lfingers 7.12502 0 0
lthumb 14.1374 78.2338 0
rclavicle 2.02947e-14 -6.96806e-15 0
rhumerus 46.4445 -3.94255 -55.8395
rradius 19.1461 0 0
rwrist 21.5368 0 0
rhand -18.3582 -36.2782 0
rfingers 7.12502 0 0
rthumb 7.92457 -66.1062 0
1633
root -14.8851 14.5681 19.3753 703.998 -71.0013 376.058
lfemur 10.087 -11.4582 -12.2217
ltibia 31.3056 0 0
lfoot -21.7314 29.1209 0
ltoes -43.4505 0 0
rfemur -52.4396 -14.7 8.08135
rtibia 65.3306 0 0
rfoot -9.33796 10.4467 0
rtoes 2.52454 0 0
lowerback 12.9643 4.00794 -7.65313
upperback -0.54679 4.09598 -0.310391
thorax -8.40911 2.29271 3.14096
lowerneck 1.22502 -13.0822 -12.8343
upperneck 3.27036 -17.9711 10.5335
head 2.87855 -9.00599 4.45566
lclavicle 2.16344e-14 -6.5914e-15 0
lhumerus -72.037 -16.9714 104.396
lradius 104.17 0 0
lwrist 54.6406 0 0
lhand -12.6016 49.0377 0
lfingers 7.12502 0 0
lthumb 13.4434 78.1676 0
rclavicle 2.16344e-14 -6.5914e-15 0
rhumerus 46.5014 -3.97025 -55.9151
rradius 19.1225 0 0
rwrist 21.7091 0 0
rhand -18.2862 -36.1204 0
rfingers 7.12502 0 0
rthumb 7.99399 -65.9461 0
1634
root -14.9081 14.5676 19.3801 704.017 -71.0285 376.126
lfemur 10.2463 -11.4992 -12.2658
ltibia 31.0369 0 0
lfoot -21.6794 29.1848 0
ltoes -43.4343 0 0
rfemur -52.5082 -14.718 8.08429
rtibia 65.4475 0 0
rfoot -9.49621 10.4402 0
rtoes 2.53035 0 0
lowerback 12.9493 4.00458 -7.65409
upperback -0.561629 4.09337 -0.300804
thorax -8.41729 2.29255 3.15259
lowerneck 1.2568 -13.0866 -12.8355
upperneck 3.25647 -17.98 10.5393
head 2.87096 -9.01128 4.45946
lclavicle 2.29741e-14 -6.21474e-15 0
lhumerus -72.0539 -17.022 104.414
lradius 104.166 0 0
lwrist 54.699 0 0
lhand -13.3254 48.8837 0
lfingers 7.12502 0 0
lthumb 12.7495 78.1015 0
rclavicle 2.29741e-14 -6.21474e-15 0
rhumerus 46.5582 -3.99796 -55.9907
rradius 19.099 0 0
rwrist 21.8814 0 0
rhand -18.2143 -35.9627 0
rfingers 7.12502 0 0
rthumb 8.06341 -65.7861 0
1635
root -14.9311 14.5671 19.3848 704.035 -71.0556 376.195
lfemur 10.4056 -11.5403 -12.3099
ltibia 30.7683 0 0
lfoot -21.6274 29.2488 0
ltoes -43.4181 0 0
rfemur -52.5769 -14.7361 8.08724
rtibia 65.5645 0 0
rfoot -9.65447 10.4336 0
rtoes 2.53616 0 0
lowerback 12.9342 4.00122 -7.65504
upperback -0.576469 4.09076 -0.291218
thorax -8.42546 2.29239 3.16422
lowerneck 1.28858 -13.0911 -12.8366
upperneck 3.24259 -17.989 10.545
head 2.86338 -9.01657 4.46326
lclavicle 2.43138e-14 -5.83808e-15 0
lhumerus -72.0707 -17.0725 104.431
lradius 104.161 0 0
lwrist 54.7574 0 0
lhand -14.0493 48.7298 0
lfingers 7.12502 0 0
lthumb 12.0555 78.0354 0
rclavicle 2.43138e-14 -5.83808e-15 0
rhumerus 46.6151 -4.02566 -56.0663
rradius 19.0754 0 0
rwrist 22.0536 0 0
rhand -18.1424 -35.805 0
rfingers 7.12502 0 0
rthumb 8.13284 -65.626 0
1636
root -14.9541 14.5665 19.3896 704.054 -71.0827 376.263
lfemur 10.5649 -11.5813 -12.354
ltibia 30.4996 0 0
lfoot -21.5755 29.3127 0
ltoes -43.4019 0 0
rfemur -52.6455 -14.7541 8.09018
rtibia 65.6814 0 0
rfoot -9.81272 10.4271 0
rtoes 2.54197 0 0
lowerback 12.9192 3.99786 -7.656
upperback -0.591308 4.08814 -0.281631
thorax -8.43363 2.29224 3.17585
lowerneck 1.32036 -13.0955 -12.8378
upperneck 3.2287 -17.9979 10.5507
head 2.85579 -9.02186 4.46706
lclavicle 2.56536e-14 -5.46142e-15 0
lhumerus -72.0876 -17.123 104.448
lradius 104.156 0 0
lwrist 54.8159 0 0
lhand -14.7731 48.5758 0
lfingers 7.12502 0 0
lthumb 11.3615 77.9693 0
rclavicle 2.56536e-14 -5.46142e-15 0
rhumerus 46.672 -4.05337 -56.1419
rradius 19.0519 0 0
rwrist 22.2259 0 0
rhand -18.0705 -35.6473 0
rfingers 7.12502 0 0
rthumb 8.20226 -65.4659 0
1637
root -14.9771 14.566 19.3943 704.073 -71.1099 376.332
lfemur 10.7242 -11.6223 -12.3981
ltibia 30.231 0 0
lfoot -21.5235 29.3766 0
ltoes -43.3857 0 0
rfemur -52.7142 -14.7721 8.09313
rtibia 65.7983 0 0
rfoot -9.97098 10.4205 0
rtoes 2.54778 0 0
lowerback 12.9042 3.9945 -7.65696
upperback -0.606147 4.08553 -0.272045
thorax -8.44181 2.29208 3.18748
lowerneck 1.35214 -13.0999 -12.839
upperneck 3.21481 -18.0068 10.5565
head 2.8482 -9.02715 4.47085
lclavicle 2.69933e-14 -5.08476e-15 0
lhumerus -72.1045 -17.1735 104.465
lradius 104.152 0 0
lwrist 54.8743 0 0
lhand -15.4969 48.4218 0
lfingers 7.12502 0 0
lthumb 10.6676 77.9032 0
rclavicle 2.69933e-14 -5.08476e-15 0
rhumerus 46.7288 -4.08107 -56.2175
rradius 19.0283 0 0
rwrist 22.3981 0 0
rhand -17.9986 -35.4896 0
rfingers 7.12502 0 0
rthumb 8.27168 -65.3059 0
1638
root -15 14.5655 19.3991 704.092 -71.137 376.4
lfemur 10.8835 -11.6633 -12.4422
ltibia 29.9623 0 0
lfoot -21.4715 29.4406 0
ltoes -43.3695 0 0
rfemur -52.7828 -14.7902 8.09607
rtibia 65.9152 0 0
rfoot -10.1292 10.414 0
rtoes 2.55359 0 0
lowerback 12.8892 3.99114 -7.65792
upperback -0.620987 4.08292 -0.262458
thorax -8.44998 2.29192 3.19911
lowerneck 1.38392 -13.1043 -12.8402
upperneck 3.20093 -18.0157 10.5622
head 2.84062 -9.03244 4.47465
lclavicle 2.8333e-14 -4.7081e-15 0
lhumerus -72.1214 -17.224 104.482
lradius 104.147 0 0
lwrist 54.9327 0 0
lhand -16.2208 48.2679 0
lfingers 7.12502 0 0
lthumb 9.97362 77.8371 0
rclavicle 2.8333e-14 -4.7081e-15 0
rhumerus 46.7857 -4.10878 -56.2931
rradius 19.0048 0 0
rwrist 22.5704 0 0
rhand -17.9267 -35.3319 0
rfingers 7.12502 0 0
rthumb 8.3411 -65.1458 0
1639
root -15.023 14.565 19.4038 704.111 -71.1641 376.469
lfemur 11.0428 -11.7043 -12.4862
ltibia 29.6937 0 0
lfoot -21.4195 29.5045 0
ltoes -43.3533 0 0
rfemur -52.8515 -14.8082 8.09902
rtibia 66.0322 0 0
rfoot -10.2875 10.4075 0
rtoes 2.5594 0 0
lowerback 12.8741 3.98778 -7.65887
upperback -0.635826 4.08031 -0.252872
thorax -8.45815 2.29176 3.21074
lowerneck 1.4157 -13.1087 -12.8414
upperneck 3.18704 -18.0246 10.5679
head 2.83303 -9.03772 4.47845
lclavicle 2.96727e-14 -4.33144e-15 0
lhumerus -72.1383 -17.2746 104.5
lradius 104.142 0 0
lwrist 54.9911 0 0
lhand -16.9446 48.1139 0
lfingers 7.12502 0 0
lthumb 9.27965 77.7709 0
rclavicle 2.96727e-14 -4.33144e-15 0
rhumerus 46.8426 -4.13648 -56.3687
rradius 18.9812 0 0
rwrist 22.7427 0 0
rhand -17.8547 -35.1741 0
rfingers 7.12502 0 0
rthumb 8.41053 -64.9857 0
1640
root -15.046 14.5645 19.4086 704.13 -71.1913 376.537
lfemur 11.2021 -11.7453 -12.5303
ltibia 29.425 0 0
lfoot -21.3676 29.5685 0
ltoes -43.3371 0 0
rfemur -52.9201 -14.8263 8.10196
rtibia 66.1491 0 0
rfoot -10.4457 10.4009 0
rtoes 2.56521 0 0
lowerback 12.8591 3.98442 -7.65983
upperback -0.650666 4.0777 -0.243285
thorax -8.46633 2.2916 3.22237
lowerneck 1.44748 -13.1131 -12.8426
upperneck 3.17316 -18.0335 10.5737
head 2.82545 -9.04301 4.48225
lclavicle 3.10125e-14 -3.95478e-15 0
lhumerus -72.1552 -17.3251 104.517
lradius 104.138 0 0
lwrist 55.0496 0 0
lhand -17.6685 47.96 0
lfingers 7.12502 0 0
lthumb 8.58569 77.7048 0
rclavicle 3.10125e-14 -3.95478e-15 0
rhumerus 46.8994 -4.16419 -56.4443
rradius 18.9577 0 0
rwrist 22.9149 0 0
rhand -17.7828 -35.0164 0
rfingers 7.12502 0 0
rthumb 8.47995 -64.8257 0
1641
root -15.069 14.564 19.4133 704.149 -71.2184 376.606
lfemur 11.3614 -11.7863 -12.5744
ltibia 29.1564 0 0
lfoot -21.3156 29.6324 0
ltoes -43.3209 0 0
rfemur -52.9888 -14.8443 8.10491
rtibia 66.266 0 0
rfoot -10.604 10.3944 0
rtoes 2.57102 0 0
lowerback 12.8441 3.98106 -7.66079
upperback -0.665505 4.07509 -0.233699
thorax -8.4745 2.29144 3.234
lowerneck 1.47926 -13.1175 -12.8438
upperneck 3.15927 -18.0424 10.5794
head 2.81786 -9.0483 4.48605
lclavicle 3.23522e-14 -3.57812e-15 0
lhumerus -72.1721 -17.3756 104.534
lradius 104.133 0 0
lwrist 55.108 0 0
lhand -18.3923 47.806 0
lfingers 7.12502 0 0
lthumb 7.89172 77.6387 0
rclavicle 3.23522e-14 -3.57812e-15 0
rhumerus 46.9563 -4.19189 -56.5199
rradius 18.9341 0 0
rwrist 23.0872 0 0
rhand -17.7109 -34.8587 0
rfingers 7.12502 0 0
rthumb 8.54937 -64.6656 0
1642
root -14.9854 14.5676 19.4614 704.429 -71.4067 376.323
lfemur 10.7923 -11.9012 -12.7145
ltibia 29.8754 0 0
lfoot -21.4072 29.7413 0
ltoes -43.3201 0 0
rfemur -52.8151 -14.3244 7.81288
rtibia 65.4269 0 0
rfoot -10.2767 10.0431 0
rtoes 2.08009 0 0
lowerback 12.9091 3.89216 -7.69123
upperback -0.618997 3.95279 -0.15646
thorax -8.44333 2.2317 3.36213
lowerneck 1.62476 -13.1782 -12.9043
upperneck 2.98012 -18.1358 10.768
head 2.78147 -9.10305 4.55771
lclavicle 3.10759e-14 -3.19994e-15 0
lhumerus -71.4303 -17.9205 104.314
lradius 104.016 0 0
lwrist 54.8602 0 0
lhand -18.1848 47.602 0
lfingers 7.12502 0 0
lthumb 8.09179 77.423 0
rclavicle 3.10759e-14 -3.19994e-15 0
rhumerus 46.846 -3.73063 -55.9254
rradius 20.3656 0 0
rwrist 21.6039 0 0
rhand -17.1206 -34.9233 0
rfingers 7.12502 0 0
rthumb 9.11627 -64.6678 0
1643
root -14.9018 14.5711 19.5095 704.709 -71.595 376.039
lfemur 10.2232 -12.0161 -12.8546
ltibia 30.5944 0 0
lfoot -21.4988 29.8503 0
ltoes -43.3192 0 0
rfemur -52.6415 -13.8044 7.52085
rtibia 64.5878 0 0
rfoot -9.94942 9.69176 0
rtoes 1.58917 0 0
lowerback 12.9741 3.80326 -7.72167
upperback -0.57249 3.83049 -0.0792215
thorax -8.41217 2.17195 3.49027
lowerneck 1.77026 -13.2389 -12.9648
upperneck 2.80097 -18.2293 10.9567
head 2.74507 -9.15779 4.62937
lclavicle 2.97995e-14 -2.82177e-15 0
lhumerus -70.6886 -18.4654 104.094
lradius 103.9 0 0
lwrist 54.6124 0 0
lhand -17.9773 47.398 0
lfingers 7.12502 0 0
lthumb 8.29185 77.2072 0
rclavicle 2.97995e-14 -2.82177e-15 0
rhumerus 46.7358 -3.26936 -55.3309
rradius 21.797 0 0
rwrist 20.1206 0 0
rhand -16.5303 -34.9879 0
rfingers 7.12502 0 0
rthumb 9.68318 -64.67 0
1644
root -14.8183 14.5747 19.5577 704.988 -71.7833 375.756
lfemur 9.65408 -12.131 -12.9948
ltibia 31.3134 0 0
lfoot -21.5904 29.9592 0
ltoes -43.3184 0 0
rfemur -52.4678 -13.2845 7.22882
rtibia 63.7487 0 0
rfoot -9.62214 9.34044 0
rtoes 1.09824 0 0
lowerback 13.0391 3.71436 -7.7521
upperback -0.525982 3.70819 -0.00198273
thorax -8.381 2.11221 3.6184
lowerneck 1.91576 -13.2997 -13.0253
upperneck 2.62182 -18.3227 11.1453
head 2.70868 -9.21254 4.70102
lclavicle 2.85232e-14 -2.44359e-15 0
lhumerus -69.9468 -19.0103 103.874
lradius 103.783 0 0
lwrist 54.3647 0 0
lhand -17.7698 47.194 0
lfingers 7.12502 0 0
lthumb 8.49192 76.9915 0
rclavicle 2.85232e-14 -2.44359e-15 0
rhumerus 46.6255 -2.8081 -54.7365
rradius 23.2285 0 0
rwrist 18.6372 0 0
rhand -15.9399 -35.0525 0
rfingers 7.12502 0 0
rthumb 10.2501 -64.6722 0
